<mxfile host="app.diagrams.net" modified="2024-06-11T09:43:46.303Z" agent="Mozilla/5.0 (Windows NT 10.0; Win64; x64) AppleWebKit/537.36 (KHTML, like Gecko) Chrome/125.0.0.0 Safari/537.36 Edg/125.0.0.0" etag="nKbMMIp9CnMSgS-l7qkB" version="24.5.2" type="github">
  <diagram name="第 1 页" id="wWWji1S4WTed1VP1iQNv">
    <mxGraphModel dx="1373" dy="778" grid="1" gridSize="10" guides="1" tooltips="1" connect="1" arrows="1" fold="1" page="1" pageScale="1" pageWidth="827" pageHeight="1169" math="0" shadow="0">
      <root>
        <mxCell id="0" />
        <mxCell id="1" parent="0" />
        <mxCell id="07GPoM1qew-r4MaV3AXR-7" style="edgeStyle=orthogonalEdgeStyle;rounded=0;orthogonalLoop=1;jettySize=auto;html=1;entryX=0;entryY=0.5;entryDx=0;entryDy=0;endArrow=block;endFill=1;dashed=1;" edge="1" parent="1" source="07GPoM1qew-r4MaV3AXR-2" target="07GPoM1qew-r4MaV3AXR-3">
          <mxGeometry relative="1" as="geometry" />
        </mxCell>
        <mxCell id="07GPoM1qew-r4MaV3AXR-12" style="edgeStyle=orthogonalEdgeStyle;rounded=0;orthogonalLoop=1;jettySize=auto;html=1;entryX=0.5;entryY=1;entryDx=0;entryDy=0;exitX=0.5;exitY=1;exitDx=0;exitDy=0;endArrow=block;endFill=1;" edge="1" parent="1" source="07GPoM1qew-r4MaV3AXR-2" target="07GPoM1qew-r4MaV3AXR-5">
          <mxGeometry relative="1" as="geometry" />
        </mxCell>
        <mxCell id="07GPoM1qew-r4MaV3AXR-2" value="&lt;font style=&quot;font-size: 17px;&quot;&gt;E1B1&lt;/font&gt;&lt;div&gt;&lt;span style=&quot;font-size: 17px;&quot;&gt;OP1&lt;/span&gt;&lt;/div&gt;" style="whiteSpace=wrap;html=1;aspect=fixed;fillColor=#F8CECC;" vertex="1" parent="1">
          <mxGeometry x="40" y="250" width="50" height="50" as="geometry" />
        </mxCell>
        <mxCell id="07GPoM1qew-r4MaV3AXR-8" style="edgeStyle=orthogonalEdgeStyle;rounded=0;orthogonalLoop=1;jettySize=auto;html=1;entryX=0;entryY=0.5;entryDx=0;entryDy=0;endArrow=block;endFill=1;dashed=1;" edge="1" parent="1" source="07GPoM1qew-r4MaV3AXR-3">
          <mxGeometry relative="1" as="geometry">
            <mxPoint x="200" y="275" as="targetPoint" />
          </mxGeometry>
        </mxCell>
        <mxCell id="07GPoM1qew-r4MaV3AXR-3" value="&lt;font style=&quot;font-size: 17px;&quot;&gt;E1B1&lt;/font&gt;&lt;div&gt;&lt;font style=&quot;font-size: 17px;&quot;&gt;OP2&lt;/font&gt;&lt;/div&gt;" style="whiteSpace=wrap;html=1;aspect=fixed;fillColor=#F8CECC;dashed=1;" vertex="1" parent="1">
          <mxGeometry x="120" y="250" width="50" height="50" as="geometry" />
        </mxCell>
        <mxCell id="07GPoM1qew-r4MaV3AXR-9" style="edgeStyle=orthogonalEdgeStyle;rounded=0;orthogonalLoop=1;jettySize=auto;html=1;entryX=0;entryY=0.5;entryDx=0;entryDy=0;endArrow=block;endFill=1;dashed=1;" edge="1" parent="1" target="07GPoM1qew-r4MaV3AXR-5">
          <mxGeometry relative="1" as="geometry">
            <mxPoint x="230" y="275" as="sourcePoint" />
          </mxGeometry>
        </mxCell>
        <mxCell id="07GPoM1qew-r4MaV3AXR-10" style="edgeStyle=orthogonalEdgeStyle;rounded=0;orthogonalLoop=1;jettySize=auto;html=1;entryX=0;entryY=0.5;entryDx=0;entryDy=0;endArrow=block;endFill=1;" edge="1" parent="1" source="07GPoM1qew-r4MaV3AXR-5" target="07GPoM1qew-r4MaV3AXR-6">
          <mxGeometry relative="1" as="geometry" />
        </mxCell>
        <mxCell id="07GPoM1qew-r4MaV3AXR-5" value="&lt;font style=&quot;font-size: 17px;&quot;&gt;E1B2&lt;/font&gt;&lt;div&gt;&lt;font style=&quot;font-size: 17px;&quot;&gt;OP1&lt;/font&gt;&lt;/div&gt;" style="whiteSpace=wrap;html=1;aspect=fixed;fillColor=#F8CECC;" vertex="1" parent="1">
          <mxGeometry x="260" y="250" width="50" height="50" as="geometry" />
        </mxCell>
        <mxCell id="07GPoM1qew-r4MaV3AXR-6" value="&lt;font style=&quot;font-size: 17px;&quot;&gt;E1B2&lt;/font&gt;&lt;div&gt;&lt;font style=&quot;font-size: 17px;&quot;&gt;OP2&lt;/font&gt;&lt;/div&gt;" style="whiteSpace=wrap;html=1;aspect=fixed;fillColor=#F8CECC;" vertex="1" parent="1">
          <mxGeometry x="340" y="250" width="50" height="50" as="geometry" />
        </mxCell>
        <mxCell id="07GPoM1qew-r4MaV3AXR-11" value="..." style="text;html=1;align=center;verticalAlign=middle;whiteSpace=wrap;rounded=0;" vertex="1" parent="1">
          <mxGeometry x="200" y="267" width="30" height="10" as="geometry" />
        </mxCell>
        <mxCell id="07GPoM1qew-r4MaV3AXR-14" value="&lt;font style=&quot;font-size: 16px;&quot;&gt;(1)&lt;/font&gt;" style="text;html=1;align=center;verticalAlign=middle;whiteSpace=wrap;rounded=0;" vertex="1" parent="1">
          <mxGeometry y="260" width="30" height="30" as="geometry" />
        </mxCell>
        <mxCell id="07GPoM1qew-r4MaV3AXR-15" value="&lt;font style=&quot;font-size: 16px;&quot;&gt;(2)&lt;/font&gt;" style="text;html=1;align=center;verticalAlign=middle;whiteSpace=wrap;rounded=0;" vertex="1" parent="1">
          <mxGeometry x="420" y="260" width="30" height="30" as="geometry" />
        </mxCell>
        <mxCell id="07GPoM1qew-r4MaV3AXR-17" style="edgeStyle=orthogonalEdgeStyle;rounded=0;orthogonalLoop=1;jettySize=auto;html=1;entryX=0.25;entryY=1;entryDx=0;entryDy=0;exitX=0.5;exitY=1;exitDx=0;exitDy=0;endArrow=block;endFill=1;" edge="1" parent="1" source="07GPoM1qew-r4MaV3AXR-18" target="07GPoM1qew-r4MaV3AXR-26">
          <mxGeometry relative="1" as="geometry" />
        </mxCell>
        <mxCell id="07GPoM1qew-r4MaV3AXR-27" style="edgeStyle=orthogonalEdgeStyle;rounded=0;orthogonalLoop=1;jettySize=auto;html=1;entryX=0;entryY=0.5;entryDx=0;entryDy=0;dashed=1;endArrow=block;endFill=1;" edge="1" parent="1" source="07GPoM1qew-r4MaV3AXR-18" target="07GPoM1qew-r4MaV3AXR-20">
          <mxGeometry relative="1" as="geometry" />
        </mxCell>
        <mxCell id="07GPoM1qew-r4MaV3AXR-18" value="&lt;font style=&quot;font-size: 17px;&quot;&gt;E1B1&lt;/font&gt;&lt;div&gt;&lt;span style=&quot;font-size: 17px;&quot;&gt;OP1&lt;/span&gt;&lt;/div&gt;" style="whiteSpace=wrap;html=1;aspect=fixed;fillColor=#F8CECC;" vertex="1" parent="1">
          <mxGeometry x="450" y="250" width="50" height="50" as="geometry" />
        </mxCell>
        <mxCell id="07GPoM1qew-r4MaV3AXR-19" style="edgeStyle=orthogonalEdgeStyle;rounded=0;orthogonalLoop=1;jettySize=auto;html=1;entryX=0;entryY=0.5;entryDx=0;entryDy=0;endArrow=block;endFill=1;dashed=1;" edge="1" parent="1" source="07GPoM1qew-r4MaV3AXR-20">
          <mxGeometry relative="1" as="geometry">
            <mxPoint x="610" y="275" as="targetPoint" />
          </mxGeometry>
        </mxCell>
        <mxCell id="07GPoM1qew-r4MaV3AXR-20" value="&lt;font style=&quot;font-size: 17px;&quot;&gt;E1B1&lt;/font&gt;&lt;div&gt;&lt;font style=&quot;font-size: 17px;&quot;&gt;OP2&lt;/font&gt;&lt;/div&gt;" style="whiteSpace=wrap;html=1;aspect=fixed;fillColor=#F8CECC;dashed=1;" vertex="1" parent="1">
          <mxGeometry x="530" y="250" width="50" height="50" as="geometry" />
        </mxCell>
        <mxCell id="07GPoM1qew-r4MaV3AXR-21" style="edgeStyle=orthogonalEdgeStyle;rounded=0;orthogonalLoop=1;jettySize=auto;html=1;entryX=0;entryY=0.5;entryDx=0;entryDy=0;endArrow=block;endFill=1;dashed=1;" edge="1" parent="1" target="07GPoM1qew-r4MaV3AXR-23">
          <mxGeometry relative="1" as="geometry">
            <mxPoint x="640" y="275" as="sourcePoint" />
          </mxGeometry>
        </mxCell>
        <mxCell id="07GPoM1qew-r4MaV3AXR-22" style="edgeStyle=orthogonalEdgeStyle;rounded=0;orthogonalLoop=1;jettySize=auto;html=1;entryX=0;entryY=0.5;entryDx=0;entryDy=0;endArrow=block;endFill=1;dashed=1;" edge="1" parent="1" source="07GPoM1qew-r4MaV3AXR-23" target="07GPoM1qew-r4MaV3AXR-24">
          <mxGeometry relative="1" as="geometry" />
        </mxCell>
        <mxCell id="07GPoM1qew-r4MaV3AXR-23" value="&lt;font style=&quot;font-size: 17px;&quot;&gt;E1B1&lt;/font&gt;&lt;div&gt;&lt;font style=&quot;font-size: 17px;&quot;&gt;OP4&lt;/font&gt;&lt;/div&gt;" style="whiteSpace=wrap;html=1;aspect=fixed;fillColor=#F8CECC;dashed=1;" vertex="1" parent="1">
          <mxGeometry x="690" y="250" width="50" height="50" as="geometry" />
        </mxCell>
        <mxCell id="07GPoM1qew-r4MaV3AXR-24" value="&lt;font style=&quot;font-size: 17px;&quot;&gt;E1B1&lt;/font&gt;&lt;div&gt;&lt;font style=&quot;font-size: 17px;&quot;&gt;OP5&lt;/font&gt;&lt;/div&gt;" style="whiteSpace=wrap;html=1;aspect=fixed;fillColor=#F8CECC;" vertex="1" parent="1">
          <mxGeometry x="770" y="250" width="50" height="50" as="geometry" />
        </mxCell>
        <mxCell id="07GPoM1qew-r4MaV3AXR-29" style="edgeStyle=orthogonalEdgeStyle;rounded=0;orthogonalLoop=1;jettySize=auto;html=1;exitX=0.75;exitY=1;exitDx=0;exitDy=0;entryX=0.5;entryY=1;entryDx=0;entryDy=0;" edge="1" parent="1" source="07GPoM1qew-r4MaV3AXR-26" target="07GPoM1qew-r4MaV3AXR-24">
          <mxGeometry relative="1" as="geometry" />
        </mxCell>
        <mxCell id="07GPoM1qew-r4MaV3AXR-26" value="&lt;font style=&quot;font-size: 17px;&quot;&gt;E1B1&lt;/font&gt;&lt;div&gt;&lt;font style=&quot;font-size: 17px;&quot;&gt;OP3&lt;/font&gt;&lt;/div&gt;" style="whiteSpace=wrap;html=1;aspect=fixed;fillColor=#F8CECC;" vertex="1" parent="1">
          <mxGeometry x="610" y="250" width="50" height="50" as="geometry" />
        </mxCell>
        <mxCell id="07GPoM1qew-r4MaV3AXR-30" value="&lt;font style=&quot;font-size: 16px;&quot;&gt;(3)&lt;/font&gt;" style="text;html=1;align=center;verticalAlign=middle;whiteSpace=wrap;rounded=0;" vertex="1" parent="1">
          <mxGeometry y="360" width="30" height="30" as="geometry" />
        </mxCell>
      </root>
    </mxGraphModel>
  </diagram>
</mxfile>
